<mxfile host="app.diagrams.net" agent="Mozilla/5.0 (Windows NT 10.0; Win64; x64) AppleWebKit/537.36 (KHTML, like Gecko) Chrome/135.0.0.0 Safari/537.36" version="26.3.0">
  <diagram name="Page-1" id="N-1RoSbAJEMocxM9TRnv">
    <mxGraphModel dx="744" dy="410" grid="1" gridSize="10" guides="1" tooltips="1" connect="1" arrows="1" fold="1" page="1" pageScale="1" pageWidth="1169" pageHeight="1654" math="0" shadow="0">
      <root>
        <mxCell id="0" />
        <mxCell id="1" parent="0" />
        <mxCell id="aeecMt40vnIQ4hirVdPA-24" value="" style="rounded=0;whiteSpace=wrap;html=1;dashed=1;fillColor=none;" vertex="1" parent="1">
          <mxGeometry x="670" y="250" width="40" height="150" as="geometry" />
        </mxCell>
        <mxCell id="aeecMt40vnIQ4hirVdPA-1" value="" style="rounded=0;whiteSpace=wrap;html=1;fontFamily=modern;fontSource=https%3A%2F%2Fsourceforge.net%2Fprojects%2Fcm-unicode%2F;" vertex="1" parent="1">
          <mxGeometry x="200" y="240" width="170" height="100" as="geometry" />
        </mxCell>
        <mxCell id="aeecMt40vnIQ4hirVdPA-2" value="USRP x410" style="text;html=1;align=center;verticalAlign=middle;whiteSpace=wrap;rounded=0;fontFamily=modern;fontSource=https%3A%2F%2Fsourceforge.net%2Fprojects%2Fcm-unicode%2F;" vertex="1" parent="1">
          <mxGeometry x="230" y="240" width="110" height="30" as="geometry" />
        </mxCell>
        <mxCell id="aeecMt40vnIQ4hirVdPA-3" style="edgeStyle=orthogonalEdgeStyle;rounded=0;orthogonalLoop=1;jettySize=auto;html=1;exitX=1;exitY=0.5;exitDx=0;exitDy=0;entryX=0;entryY=0.5;entryDx=0;entryDy=0;startArrow=classicThin;startFill=1;endArrow=none;fontFamily=modern;fontSource=https%3A%2F%2Fsourceforge.net%2Fprojects%2Fcm-unicode%2F;" edge="1" parent="1" source="aeecMt40vnIQ4hirVdPA-4" target="aeecMt40vnIQ4hirVdPA-8">
          <mxGeometry relative="1" as="geometry" />
        </mxCell>
        <mxCell id="aeecMt40vnIQ4hirVdPA-4" value="" style="ellipse;whiteSpace=wrap;html=1;aspect=fixed;fontFamily=modern;fontSource=https%3A%2F%2Fsourceforge.net%2Fprojects%2Fcm-unicode%2F;" vertex="1" parent="1">
          <mxGeometry x="310" y="290" width="40" height="40" as="geometry" />
        </mxCell>
        <mxCell id="aeecMt40vnIQ4hirVdPA-5" value="Rx" style="text;html=1;align=center;verticalAlign=middle;whiteSpace=wrap;rounded=0;fontFamily=modern;fontSource=https%3A%2F%2Fsourceforge.net%2Fprojects%2Fcm-unicode%2F;" vertex="1" parent="1">
          <mxGeometry x="300" y="270" width="60" height="30" as="geometry" />
        </mxCell>
        <mxCell id="aeecMt40vnIQ4hirVdPA-6" value="" style="endArrow=none;html=1;rounded=0;fontFamily=modern;fontSource=https%3A%2F%2Fsourceforge.net%2Fprojects%2Fcm-unicode%2F;" edge="1" parent="1">
          <mxGeometry width="50" height="50" relative="1" as="geometry">
            <mxPoint x="480" y="440" as="sourcePoint" />
            <mxPoint x="480" y="240" as="targetPoint" />
          </mxGeometry>
        </mxCell>
        <mxCell id="aeecMt40vnIQ4hirVdPA-7" value="" style="rounded=0;whiteSpace=wrap;html=1;fontFamily=modern;fontSource=https%3A%2F%2Fsourceforge.net%2Fprojects%2Fcm-unicode%2F;" vertex="1" parent="1">
          <mxGeometry x="480" y="360" width="20" height="80" as="geometry" />
        </mxCell>
        <mxCell id="aeecMt40vnIQ4hirVdPA-8" value="" style="rounded=0;whiteSpace=wrap;html=1;fontFamily=modern;fontSource=https%3A%2F%2Fsourceforge.net%2Fprojects%2Fcm-unicode%2F;" vertex="1" parent="1">
          <mxGeometry x="480" y="240" width="20" height="80" as="geometry" />
        </mxCell>
        <mxCell id="aeecMt40vnIQ4hirVdPA-9" style="edgeStyle=orthogonalEdgeStyle;rounded=0;orthogonalLoop=1;jettySize=auto;html=1;exitX=0.5;exitY=1;exitDx=0;exitDy=0;entryX=0;entryY=0.5;entryDx=0;entryDy=0;fontFamily=modern;fontSource=https%3A%2F%2Fsourceforge.net%2Fprojects%2Fcm-unicode%2F;" edge="1" parent="1" source="aeecMt40vnIQ4hirVdPA-10" target="aeecMt40vnIQ4hirVdPA-7">
          <mxGeometry relative="1" as="geometry" />
        </mxCell>
        <mxCell id="aeecMt40vnIQ4hirVdPA-10" value="" style="ellipse;whiteSpace=wrap;html=1;aspect=fixed;fontFamily=modern;fontSource=https%3A%2F%2Fsourceforge.net%2Fprojects%2Fcm-unicode%2F;" vertex="1" parent="1">
          <mxGeometry x="220" y="290" width="40" height="40" as="geometry" />
        </mxCell>
        <mxCell id="aeecMt40vnIQ4hirVdPA-11" value="Tx" style="text;html=1;align=center;verticalAlign=middle;whiteSpace=wrap;rounded=0;fontFamily=modern;fontSource=https%3A%2F%2Fsourceforge.net%2Fprojects%2Fcm-unicode%2F;" vertex="1" parent="1">
          <mxGeometry x="210" y="270" width="60" height="30" as="geometry" />
        </mxCell>
        <mxCell id="aeecMt40vnIQ4hirVdPA-12" value="Tx Antenna Array" style="text;html=1;align=center;verticalAlign=middle;whiteSpace=wrap;rounded=0;fontFamily=modern;fontSource=https%3A%2F%2Fsourceforge.net%2Fprojects%2Fcm-unicode%2F;" vertex="1" parent="1">
          <mxGeometry x="400" y="360" width="70" height="30" as="geometry" />
        </mxCell>
        <mxCell id="aeecMt40vnIQ4hirVdPA-13" value="Rx Antenna Array" style="text;html=1;align=center;verticalAlign=middle;whiteSpace=wrap;rounded=0;fontFamily=modern;fontSource=https%3A%2F%2Fsourceforge.net%2Fprojects%2Fcm-unicode%2F;" vertex="1" parent="1">
          <mxGeometry x="400" y="240" width="70" height="30" as="geometry" />
        </mxCell>
        <mxCell id="aeecMt40vnIQ4hirVdPA-15" value="Debris" style="text;html=1;align=center;verticalAlign=middle;whiteSpace=wrap;rounded=0;fontFamily=modern;fontSource=https%3A%2F%2Fsourceforge.net%2Fprojects%2Fcm-unicode%2F;" vertex="1" parent="1">
          <mxGeometry x="710" y="250" width="60" height="30" as="geometry" />
        </mxCell>
        <mxCell id="aeecMt40vnIQ4hirVdPA-16" value="" style="shape=mxgraph.arrows2.wedgeArrowDashed2;html=1;bendable=0;startWidth=25.217391304347828;stepSize=15;rounded=0;fontFamily=modern;fontSource=https%3A%2F%2Fsourceforge.net%2Fprojects%2Fcm-unicode%2F;" edge="1" parent="1">
          <mxGeometry width="100" height="100" relative="1" as="geometry">
            <mxPoint x="660" y="360" as="sourcePoint" />
            <mxPoint x="510" y="410" as="targetPoint" />
          </mxGeometry>
        </mxCell>
        <mxCell id="aeecMt40vnIQ4hirVdPA-17" value="" style="shape=mxgraph.arrows2.wedgeArrowDashed2;html=1;bendable=0;startWidth=25.217391304347828;stepSize=15;rounded=0;fontFamily=modern;fontSource=https%3A%2F%2Fsourceforge.net%2Fprojects%2Fcm-unicode%2F;" edge="1" parent="1">
          <mxGeometry width="100" height="100" relative="1" as="geometry">
            <mxPoint x="520" y="280" as="sourcePoint" />
            <mxPoint x="660" y="320" as="targetPoint" />
          </mxGeometry>
        </mxCell>
        <mxCell id="aeecMt40vnIQ4hirVdPA-18" value="" style="whiteSpace=wrap;html=1;shape=mxgraph.basic.pointed_oval" vertex="1" parent="1">
          <mxGeometry x="680" y="260" width="10" height="20" as="geometry" />
        </mxCell>
        <mxCell id="aeecMt40vnIQ4hirVdPA-19" value="" style="whiteSpace=wrap;html=1;shape=mxgraph.basic.pointed_oval" vertex="1" parent="1">
          <mxGeometry x="690" y="300" width="10" height="20" as="geometry" />
        </mxCell>
        <mxCell id="aeecMt40vnIQ4hirVdPA-20" value="" style="whiteSpace=wrap;html=1;shape=mxgraph.basic.pointed_oval" vertex="1" parent="1">
          <mxGeometry x="690" y="340" width="10" height="20" as="geometry" />
        </mxCell>
        <mxCell id="aeecMt40vnIQ4hirVdPA-21" value="" style="whiteSpace=wrap;html=1;shape=mxgraph.basic.pointed_oval" vertex="1" parent="1">
          <mxGeometry x="680" y="310" width="10" height="20" as="geometry" />
        </mxCell>
        <mxCell id="aeecMt40vnIQ4hirVdPA-22" value="" style="whiteSpace=wrap;html=1;shape=mxgraph.basic.pointed_oval" vertex="1" parent="1">
          <mxGeometry x="680" y="350" width="10" height="20" as="geometry" />
        </mxCell>
        <mxCell id="aeecMt40vnIQ4hirVdPA-23" value="" style="whiteSpace=wrap;html=1;shape=mxgraph.basic.pointed_oval" vertex="1" parent="1">
          <mxGeometry x="690" y="370" width="10" height="20" as="geometry" />
        </mxCell>
      </root>
    </mxGraphModel>
  </diagram>
</mxfile>
